<?xml version="1.0" encoding="UTF-8" standalone="no"?>
<!DOCTYPE svg PUBLIC "-//W3C//DTD SVG 20010904//EN"
              "http://www.w3.org/TR/2001/REC-SVG-20010904/DTD/svg10.dtd">

<svg xmlns="http://www.w3.org/2000/svg"
     width="10.4167in" height="10.4167in"
     viewBox="0 0 750 750">
  <path id="Selection"
        fill="#015C86" stroke="#015C86" stroke-width="1"
        d="M 413.00,31.00
           C 413.00,31.00 417.98,32.60 417.98,32.60
             417.98,32.60 419.00,40.00 419.00,40.00
             419.00,40.00 419.00,59.00 419.00,59.00
             419.00,59.00 420.02,65.57 420.02,65.57
             420.02,65.57 427.00,68.79 427.00,68.79
             427.00,68.79 443.00,72.00 443.00,72.00
             443.00,72.00 443.00,78.00 443.00,78.00
             443.00,78.00 419.00,74.00 419.00,74.00
             419.00,79.24 418.57,84.97 420.04,90.00
             423.29,101.08 429.04,106.34 436.00,115.00
             436.00,115.00 464.92,150.00 464.92,150.00
             464.92,150.00 558.16,259.00 558.16,259.00
             558.16,259.00 590.13,296.00 590.13,296.00
             595.44,302.18 604.80,311.90 608.00,319.00
             608.00,319.00 601.00,321.00 601.00,321.00
             601.00,321.00 573.28,287.00 573.28,287.00
             573.28,287.00 526.28,233.00 526.28,233.00
             526.28,233.00 460.08,155.00 460.08,155.00
             460.08,155.00 439.08,130.00 439.08,130.00
             439.08,130.00 422.00,110.00 422.00,110.00
             422.00,110.00 442.10,153.00 442.10,153.00
             442.10,153.00 458.85,173.00 458.85,173.00
             458.85,173.00 490.83,209.00 490.83,209.00
             490.83,209.00 557.17,283.00 557.17,283.00
             557.17,283.00 593.00,323.00 593.00,323.00
             584.45,325.47 583.16,320.89 577.83,315.00
             577.83,315.00 553.83,289.00 553.83,289.00
             553.83,289.00 493.28,222.00 493.28,222.00
             493.28,222.00 464.28,189.00 464.28,189.00
             464.28,189.00 448.00,170.00 448.00,170.00
             448.00,170.00 462.84,205.99 462.84,205.99
             462.84,205.99 485.87,232.00 485.87,232.00
             485.87,232.00 546.28,301.00 546.28,301.00
             546.28,301.00 571.00,329.00 571.00,329.00
             563.05,331.70 561.86,327.62 556.84,322.00
             556.84,322.00 542.42,306.00 542.42,306.00
             542.42,306.00 500.13,258.00 500.13,258.00
             500.13,258.00 470.00,223.00 470.00,223.00
             470.00,223.00 476.99,240.00 476.99,240.00
             476.99,240.00 488.57,268.00 488.57,268.00
             488.57,268.00 504.42,307.00 504.42,307.00
             504.42,307.00 520.00,347.00 520.00,347.00
             520.00,347.00 514.00,349.00 514.00,349.00
             514.00,349.00 455.86,209.00 455.86,209.00
             455.86,209.00 449.69,194.00 449.69,194.00
             449.69,194.00 424.00,143.00 424.00,143.00
             424.00,143.00 425.83,164.00 425.83,164.00
             425.83,164.00 428.27,189.00 428.27,189.00
             428.27,189.00 437.58,232.00 437.58,232.00
             437.58,232.00 457.15,317.00 457.15,317.00
             457.15,317.00 466.87,357.00 466.87,357.00
             468.46,363.56 471.34,369.16 463.00,371.00
             463.00,371.00 457.23,343.00 457.23,343.00
             457.23,343.00 447.21,299.00 447.21,299.00
             447.21,299.00 433.23,234.00 433.23,234.00
             433.23,234.00 427.00,208.00 427.00,208.00
             427.00,208.00 428.00,223.00 428.00,223.00
             428.00,223.00 428.00,347.00 428.00,347.00
             428.00,347.00 428.00,377.00 428.00,377.00
             428.00,377.00 427.01,389.39 427.01,389.39
             427.01,389.39 413.00,398.00 413.00,398.00
             413.00,398.00 413.00,370.00 413.00,370.00
             413.00,370.00 414.00,353.00 414.00,353.00
             414.00,353.00 414.00,317.00 414.00,317.00
             414.00,317.00 413.00,300.00 413.00,300.00
             413.00,300.00 413.00,242.00 413.00,242.00
             413.00,242.00 413.00,194.00 413.00,194.00
             413.00,194.00 412.00,168.00 412.00,168.00
             412.00,168.00 410.17,191.00 410.17,191.00
             410.17,191.00 406.09,239.00 406.09,239.00
             406.09,239.00 398.91,343.00 398.91,343.00
             398.91,343.00 396.00,384.00 396.00,384.00
             396.00,384.00 395.02,394.00 395.02,394.00
             395.02,394.00 395.02,401.99 395.02,401.99
             395.02,401.99 394.00,409.00 394.00,409.00
             394.00,409.00 387.00,412.00 387.00,412.00
             387.00,412.00 388.00,394.00 388.00,394.00
             388.00,394.00 389.91,371.00 389.91,371.00
             389.91,371.00 391.17,349.00 391.17,349.00
             391.17,349.00 393.91,320.00 393.91,320.00
             393.91,320.00 398.91,254.00 398.91,254.00
             398.91,254.00 400.17,230.00 400.17,230.00
             400.17,230.00 403.91,190.00 403.91,190.00
             403.91,190.00 405.09,167.00 405.09,167.00
             405.56,160.08 407.71,146.04 406.00,140.00
             406.00,140.00 391.34,182.00 391.34,182.00
             391.34,182.00 345.31,306.00 345.31,306.00
             345.31,306.00 330.95,345.00 330.95,345.00
             327.91,353.31 327.95,356.80 321.00,355.00
             321.00,355.00 380.00,195.00 380.00,195.00
             380.00,195.00 392.28,161.00 392.28,161.00
             394.86,154.85 400.35,141.27 400.00,135.00
             400.00,135.00 385.25,168.00 385.25,168.00
             385.25,168.00 359.31,218.00 359.31,218.00
             359.31,218.00 339.75,257.00 339.75,257.00
             339.75,257.00 314.75,306.00 314.75,306.00
             314.75,306.00 294.74,345.00 294.74,345.00
             294.74,345.00 288.00,358.00 288.00,358.00
             305.37,358.00 323.17,359.54 340.00,364.15
             345.10,365.55 354.53,367.48 356.29,373.10
             357.04,375.51 358.41,386.50 357.43,388.61
             356.10,391.46 352.55,391.60 350.60,393.70
             348.85,395.56 348.61,401.30 348.28,404.00
             348.28,404.00 346.02,425.00 346.02,425.00
             345.71,429.62 345.82,434.70 341.85,437.76
             341.85,437.76 325.00,446.86 325.00,446.86
             325.00,446.86 277.00,471.26 277.00,471.26
             277.00,471.26 258.00,480.69 258.00,480.69
             258.00,480.69 213.00,499.45 213.00,499.45
             170.41,516.47 131.30,528.00 85.00,528.00
             85.00,528.00 85.00,520.00 85.00,520.00
             91.50,519.12 94.41,519.21 95.00,512.05
             93.29,512.07 88.62,512.60 87.29,512.05
             84.94,511.20 84.88,508.38 86.60,507.02
             88.27,505.70 92.86,506.00 95.00,506.00
             95.00,506.00 96.00,496.00 96.00,496.00
             96.00,496.00 86.00,498.00 86.00,498.00
             86.83,488.00 92.87,493.05 97.16,487.70
             97.16,487.70 104.95,467.00 104.95,467.00
             104.95,467.00 133.42,388.00 133.42,388.00
             133.42,388.00 147.48,348.00 147.48,348.00
             148.07,345.23 148.00,342.80 148.00,340.00
             148.00,340.00 148.00,319.00 148.00,319.00
             148.00,319.00 155.00,320.00 155.00,320.00
             155.00,320.00 155.00,349.00 155.00,349.00
             155.00,349.00 184.00,353.00 184.00,353.00
             184.00,353.00 185.00,333.00 185.00,333.00
             185.00,333.00 185.00,300.00 185.00,300.00
             191.42,300.08 192.87,300.11 193.00,307.00
             193.00,307.00 193.00,355.00 193.00,355.00
             200.24,354.40 200.47,350.25 202.66,344.00
             202.66,344.00 212.34,317.00 212.34,317.00
             212.34,317.00 227.20,277.00 227.20,277.00
             227.20,277.00 234.99,256.42 234.99,256.42
             234.99,256.42 234.99,250.00 234.99,250.00
             234.99,250.00 235.96,238.00 235.96,238.00
             235.96,238.00 235.96,223.00 235.96,223.00
             235.99,219.42 236.57,215.43 232.85,213.51
             230.38,212.23 225.68,212.54 224.02,210.41
             222.45,208.38 223.00,198.93 223.00,196.00
             226.93,198.63 226.00,201.62 226.00,206.00
             226.00,206.00 237.00,207.00 237.00,207.00
             237.00,207.00 237.00,191.00 237.00,191.00
             237.00,191.00 221.00,188.00 221.00,188.00
             221.00,188.00 222.00,182.00 222.00,182.00
             222.00,182.00 240.00,185.00 240.00,185.00
             240.00,185.00 240.00,144.00 240.00,144.00
             243.48,146.33 242.97,148.06 243.00,152.00
             243.00,152.00 244.00,186.00 244.00,186.00
             247.40,186.07 258.98,186.96 260.98,189.58
             261.95,190.86 261.87,192.50 262.00,194.00
             262.00,194.00 245.00,192.00 245.00,192.00
             245.00,192.00 245.00,209.00 245.00,209.00
             245.00,209.00 255.00,210.00 255.00,210.00
             255.00,210.00 255.00,201.00 255.00,201.00
             255.00,201.00 257.00,201.00 257.00,201.00
             257.00,201.00 258.00,216.00 258.00,216.00
             258.00,216.00 245.00,215.00 245.00,215.00
             245.00,215.00 245.00,248.00 245.00,248.00
             245.02,258.56 247.74,262.48 251.55,272.00
             251.55,272.00 268.00,314.00 268.00,314.00
             268.00,314.00 270.00,314.00 270.00,314.00
             270.00,314.00 300.58,266.00 300.58,266.00
             300.58,266.00 368.68,157.00 368.68,157.00
             368.68,157.00 387.55,127.00 387.55,127.00
             387.55,127.00 398.05,109.00 398.05,109.00
             398.05,109.00 410.90,87.58 410.90,87.58
             410.90,87.58 410.90,82.00 410.90,82.00
             410.90,82.00 412.00,73.00 412.00,73.00
             412.00,73.00 395.00,69.12 395.00,69.12
             395.00,69.12 387.99,66.28 387.99,66.28
             387.99,66.28 387.00,61.00 387.00,61.00
             387.00,61.00 413.00,66.00 413.00,66.00
             413.00,66.00 413.00,31.00 413.00,31.00 Z
           M 409.00,105.00
           C 409.00,105.00 408.00,105.00 408.00,105.00
             408.00,105.00 409.00,106.00 409.00,106.00
             409.00,106.00 409.00,105.00 409.00,105.00 Z
           M 408.00,106.00
           C 403.27,110.43 397.15,121.98 393.72,128.00
             393.72,128.00 373.58,161.00 373.58,161.00
             373.58,161.00 325.42,238.00 325.42,238.00
             325.42,238.00 296.00,285.00 296.00,285.00
             296.00,285.00 280.49,309.00 280.49,309.00
             278.37,312.18 274.17,317.40 273.45,321.00
             272.76,324.50 274.39,327.87 275.72,331.00
             278.25,336.94 280.77,346.57 285.00,351.00
             285.00,351.00 294.30,332.00 294.30,332.00
             294.30,332.00 343.74,236.00 343.74,236.00
             343.74,236.00 358.31,207.00 358.31,207.00
             358.31,207.00 392.26,140.00 392.26,140.00
             392.26,140.00 408.00,106.00 408.00,106.00 Z
           M 402.00,134.00
           C 402.00,134.00 401.00,134.00 401.00,134.00
             401.00,134.00 402.00,135.00 402.00,135.00
             402.00,135.00 402.00,134.00 402.00,134.00 Z
           M 245.00,274.00
           C 245.00,274.00 244.00,300.00 244.00,300.00
             244.00,300.00 244.00,339.00 244.00,339.00
             244.00,339.00 243.00,353.00 243.00,353.00
             247.89,350.27 249.74,345.59 252.69,341.00
             255.38,336.83 263.19,326.38 263.63,322.00
             263.99,318.32 260.12,310.62 258.58,307.00
             258.58,307.00 245.00,274.00 245.00,274.00 Z
           M 235.00,279.00
           C 230.39,284.23 224.69,303.43 221.81,311.00
             221.81,311.00 202.58,363.00 202.58,363.00
             202.58,363.00 192.14,387.00 192.14,387.00
             191.83,389.49 191.97,397.06 192.14,400.00
             192.11,409.33 194.41,416.10 192.14,426.00
             203.29,423.88 201.00,420.08 201.00,405.00
             201.00,405.00 198.00,405.00 198.00,405.00
             198.00,405.00 197.00,385.00 197.00,385.00
             197.00,385.00 223.00,372.76 223.00,372.76
             223.00,372.76 233.01,367.35 233.01,367.35
             233.01,367.35 234.04,360.00 234.04,360.00
             234.04,360.00 234.04,346.00 234.04,346.00
             234.04,346.00 235.00,334.00 235.00,334.00
             235.00,334.00 235.00,279.00 235.00,279.00 Z
           M 84.00,535.00
           C 84.00,535.00 100.00,535.00 100.00,535.00
             100.00,535.00 121.00,533.15 121.00,533.15
             168.62,527.46 213.72,509.18 257.00,489.31
             286.48,475.77 315.63,460.89 344.00,445.14
             344.00,445.14 451.00,385.26 451.00,385.26
             451.00,385.26 501.00,362.14 501.00,362.14
             523.82,352.06 553.03,341.27 577.00,334.43
             577.00,334.43 602.00,327.88 602.00,327.88
             602.00,327.88 618.00,324.07 618.00,324.07
             626.95,321.17 638.40,305.33 645.00,303.78
             647.64,303.16 652.38,305.13 655.00,306.00
             655.00,306.00 652.84,325.00 652.84,325.00
             652.84,325.00 648.83,366.00 648.83,366.00
             648.83,366.00 645.28,392.00 645.28,392.00
             645.28,392.00 637.73,447.00 637.73,447.00
             637.73,447.00 623.92,530.00 623.92,530.00
             623.92,530.00 618.00,567.00 618.00,567.00
             608.08,565.19 601.21,563.88 591.00,564.00
             591.00,564.00 581.00,564.92 581.00,564.92
             560.42,566.56 544.55,570.90 525.00,576.98
             484.08,589.69 445.54,608.68 406.00,624.99
             363.97,642.33 321.15,657.58 277.00,668.47
             256.06,673.64 238.68,677.50 217.00,679.09
             217.00,679.09 206.00,680.00 206.00,680.00
             206.00,680.00 189.00,680.00 189.00,680.00
             189.00,680.00 168.00,681.00 168.00,681.00
             168.00,681.00 157.00,680.02 157.00,680.02
             157.00,680.02 141.00,680.02 141.00,680.02
             136.76,679.95 117.24,678.29 114.00,677.00
             131.99,676.99 159.94,672.68 178.00,669.42
             222.15,661.46 260.65,651.04 303.00,636.34
             336.15,624.84 368.64,612.00 401.00,598.42
             401.00,598.42 468.00,569.22 468.00,569.22
             468.00,569.22 534.00,535.31 534.00,535.31
             534.00,535.31 601.00,499.00 601.00,499.00
             601.00,499.00 559.00,516.58 559.00,516.58
             559.00,516.58 486.00,546.99 486.00,546.99
             486.00,546.99 370.00,591.05 370.00,591.05
             316.02,610.78 264.54,627.89 208.00,639.20
             190.37,642.73 172.91,644.86 155.00,646.09
             155.00,646.09 145.00,647.00 145.00,647.00
             145.00,647.00 124.00,648.00 124.00,648.00
             124.00,648.00 98.00,648.00 98.00,648.00
             98.00,648.00 88.00,647.09 88.00,647.09
             88.00,647.09 74.00,646.28 74.00,646.28
             69.95,645.80 68.47,646.55 65.00,644.00
             81.81,644.00 98.39,641.72 115.00,639.27
             151.65,633.87 165.11,631.53 201.00,620.72
             201.00,620.72 250.00,604.00 250.00,604.00
             212.54,612.44 174.54,620.55 136.00,621.00
             136.00,621.00 121.00,622.00 121.00,622.00
             121.00,622.00 105.00,622.00 105.00,622.00
             105.00,622.00 86.00,621.00 86.00,621.00
             86.00,621.00 58.00,618.27 58.00,618.27
             53.29,617.60 48.18,617.43 44.00,615.00
             67.78,615.00 90.99,610.63 114.00,604.87
             124.46,602.26 148.65,595.09 158.00,591.00
             158.00,591.00 110.00,597.00 110.00,597.00
             110.00,597.00 94.00,598.00 94.00,598.00
             94.00,598.00 65.00,596.17 65.00,596.17
             57.06,595.37 38.36,593.78 32.00,590.00
             32.00,590.00 67.00,588.71 67.00,588.71
             67.00,588.71 85.00,585.52 85.00,585.52
             85.00,585.52 98.00,582.00 98.00,582.00
             94.08,575.12 89.20,563.78 88.00,556.00
             88.00,556.00 101.00,557.00 101.00,557.00
             101.00,557.00 120.00,557.00 120.00,557.00
             153.70,556.95 207.64,541.02 240.00,530.00
             316.46,503.98 388.81,467.08 463.00,435.43
             499.17,420.00 535.67,406.32 573.00,394.00
             573.00,394.00 628.00,377.00 628.00,377.00
             575.51,379.41 517.25,404.33 469.00,424.58
             384.30,460.12 302.18,504.16 214.00,530.72
             214.00,530.72 192.00,537.58 192.00,537.58
             162.43,545.80 117.48,554.00 87.00,554.00
             87.00,554.00 84.00,535.00 84.00,535.00 Z
           M 268.00,331.00
           C 265.08,333.47 260.86,338.24 259.89,342.00
             259.89,342.00 261.00,360.00 261.00,360.00
             261.00,360.00 279.00,358.00 279.00,358.00
             277.29,350.68 271.74,337.59 268.00,331.00 Z
           M 255.00,351.00
           C 255.00,351.00 246.00,363.00 246.00,363.00
             255.17,362.25 257.74,360.64 255.00,351.00 Z
           M 178.00,433.00
           C 186.52,429.46 185.19,428.51 184.84,412.00
             184.84,412.00 184.84,402.00 184.84,402.00
             184.84,402.00 184.84,369.00 184.84,369.00
             185.00,366.99 185.24,363.21 183.98,361.59
             182.58,359.80 178.17,359.44 176.00,359.13
             176.00,359.13 156.00,357.00 156.00,357.00
             156.00,357.00 156.00,439.00 156.00,439.00
             156.00,439.00 155.00,454.00 155.00,454.00
             155.00,454.00 155.00,482.00 155.00,482.00
             155.00,484.80 154.56,491.39 156.02,493.58
             158.07,496.67 164.56,497.69 168.06,498.00
             168.06,498.00 168.06,487.00 168.06,487.00
             168.00,484.68 167.41,477.84 168.06,476.21
             169.54,473.38 174.23,471.74 177.00,470.68
             177.00,470.68 196.00,462.85 196.00,462.85
             224.62,450.57 253.81,438.17 285.00,434.28
             285.00,434.28 310.00,432.17 310.00,432.17
             314.28,431.76 317.94,432.61 322.00,431.00
             322.00,431.00 301.00,430.00 301.00,430.00
             284.17,429.97 269.41,431.27 253.00,435.37
             230.94,440.89 210.05,449.72 189.00,458.20
             189.00,458.20 165.00,468.00 165.00,468.00
             165.00,468.00 166.02,457.39 166.02,457.39
             166.02,457.39 175.00,451.78 175.00,451.78
             175.00,451.78 198.00,441.00 198.00,441.00
             188.97,442.27 174.14,447.78 166.01,452.00
             165.38,448.52 164.12,442.40 166.01,439.22
             169.16,433.99 173.81,438.01 174.00,428.00
             174.00,428.00 174.00,406.00 174.00,406.00
             174.00,406.00 178.00,406.00 178.00,406.00
             178.00,406.00 178.00,433.00 178.00,433.00 Z
           M 195.00,362.00
           C 195.00,362.00 193.00,362.00 193.00,362.00
             193.00,362.00 192.00,369.00 192.00,369.00
             192.00,369.00 194.00,369.00 194.00,369.00
             194.00,369.00 195.00,362.00 195.00,362.00 Z
           M 557.00,368.00
           C 542.23,371.37 514.75,382.00 501.00,388.76
             494.51,391.95 484.95,395.95 480.00,401.00
             480.00,401.00 533.00,379.28 533.00,379.28
             539.40,376.52 552.21,372.23 557.00,368.00 Z
           M 147.00,371.00
           C 147.00,371.00 140.81,386.00 140.81,386.00
             140.81,386.00 129.66,416.00 129.66,416.00
             129.66,416.00 112.31,464.00 112.31,464.00
             112.31,464.00 104.00,488.14 104.00,488.14
             104.00,488.14 126.00,488.14 126.00,488.14
             126.00,488.14 147.00,492.00 147.00,492.00
             147.00,492.00 147.00,371.00 147.00,371.00 Z
           M 280.00,391.00
           C 280.00,391.00 267.00,392.00 267.00,392.00
             267.00,392.00 269.00,415.00 269.00,415.00
             269.00,415.00 281.36,413.98 281.36,413.98
             281.36,413.98 282.13,408.00 282.13,408.00
             282.13,408.00 280.00,391.00 280.00,391.00 Z
           M 308.04,392.00
           C 308.04,392.00 294.00,391.00 294.00,391.00
             294.00,391.00 295.09,407.00 295.09,407.00
             295.09,407.00 297.56,413.98 297.56,413.98
             297.56,413.98 309.00,415.00 309.00,415.00
             309.00,415.00 308.04,405.00 308.04,405.00
             308.04,405.00 308.04,392.00 308.04,392.00 Z
           M 332.99,418.00
           C 333.00,413.75 334.85,401.22 332.99,398.50
             331.07,395.73 325.14,394.49 322.00,394.00
             322.00,398.24 319.99,412.70 322.00,415.28
             323.96,417.80 330.05,417.94 332.99,418.00 Z
           M 253.00,395.00
           C 253.00,395.00 242.64,396.98 242.64,396.98
             242.64,396.98 241.92,403.00 241.92,403.00
             241.92,403.00 245.00,419.00 245.00,419.00
             245.00,419.00 257.00,418.00 257.00,418.00
             257.00,418.00 253.00,395.00 253.00,395.00 Z
           M 218.00,397.00
           C 214.92,401.76 214.92,421.24 218.00,426.00
             218.00,426.00 218.00,397.00 218.00,397.00 Z
           M 206.00,401.00
           C 206.00,401.00 205.00,401.00 205.00,401.00
             205.00,401.00 206.00,402.00 206.00,402.00
             206.00,402.00 206.00,401.00 206.00,401.00 Z
           M 204.00,402.00
           C 204.00,402.00 203.00,402.00 203.00,402.00
             203.00,402.00 204.00,403.00 204.00,403.00
             204.00,403.00 204.00,402.00 204.00,402.00 Z
           M 602.00,420.00
           C 588.43,422.10 559.00,436.25 546.00,442.75
             540.20,445.66 527.18,451.82 523.00,456.00
             531.85,453.93 563.89,438.55 574.00,433.78
             580.33,430.79 597.45,423.62 602.00,420.00 Z
           M 513.00,433.00
           C 506.13,434.24 492.03,440.63 485.00,443.58
             485.00,443.58 440.00,462.72 440.00,462.72
             386.01,486.02 333.07,511.80 278.00,532.58
             243.45,545.61 204.30,557.97 168.00,564.74
             156.18,566.95 128.03,571.87 117.00,572.00
             112.70,572.05 108.05,571.39 104.00,573.08
             126.73,576.00 142.40,575.33 165.00,573.08
             165.00,573.08 189.00,570.73 189.00,570.73
             216.30,566.71 250.14,556.26 276.00,546.42
             324.26,528.06 363.98,509.26 410.00,486.25
             410.00,486.25 475.00,453.25 475.00,453.25
             475.00,453.25 513.00,433.00 513.00,433.00 Z
           M 604.00,461.00
           C 604.00,461.00 603.00,461.00 603.00,461.00
             603.00,461.00 604.00,462.00 604.00,462.00
             604.00,462.00 604.00,461.00 604.00,461.00 Z
           M 603.00,462.00
           C 596.66,463.18 590.88,466.46 585.00,469.00
             569.01,475.90 553.73,484.71 539.00,493.95
             533.41,497.46 520.02,505.67 516.00,510.00
             516.00,510.00 533.00,501.31 533.00,501.31
             533.00,501.31 558.00,487.86 558.00,487.86
             558.00,487.86 603.00,462.00 603.00,462.00 Z
           M 514.00,477.00
           C 514.00,477.00 513.00,477.00 513.00,477.00
             513.00,477.00 514.00,478.00 514.00,478.00
             514.00,478.00 514.00,477.00 514.00,477.00 Z
           M 184.00,478.00
           C 184.00,478.00 178.00,479.00 178.00,479.00
             178.00,479.00 178.00,489.00 178.00,489.00
             178.00,489.00 184.00,488.00 184.00,488.00
             184.00,488.00 184.00,478.00 184.00,478.00 Z
           M 509.00,480.00
           C 502.10,481.62 497.37,484.80 491.00,487.58
             491.00,487.58 451.00,505.69 451.00,505.69
             414.24,522.52 376.55,538.03 339.00,553.00
             306.74,565.86 273.39,577.06 240.00,586.58
             240.00,586.58 204.00,595.63 204.00,595.63
             204.00,595.63 190.00,599.00 190.00,599.00
             202.04,598.96 228.44,595.16 241.00,593.08
             265.05,589.10 291.91,584.34 315.00,576.65
             357.02,562.65 388.02,545.87 427.00,526.25
             427.00,526.25 479.00,497.77 479.00,497.77
             485.03,494.49 505.13,483.86 509.00,480.00 Z
           M 119.00,494.00
           C 115.70,494.00 105.00,493.12 103.02,495.60
             102.05,496.81 101.34,503.08 101.00,505.00
             101.00,505.00 119.00,505.00 119.00,505.00
             119.00,505.00 119.00,494.00 119.00,494.00 Z
           M 147.00,510.00
           C 147.00,507.49 147.40,501.49 145.98,499.56
             143.99,496.87 129.82,494.72 126.00,494.00
             126.00,494.00 126.00,506.00 126.00,506.00
             126.00,506.00 147.00,510.00 147.00,510.00 Z
           M 602.00,498.00
           C 602.00,498.00 601.00,498.00 601.00,498.00
             601.00,498.00 602.00,499.00 602.00,499.00
             602.00,499.00 602.00,498.00 602.00,498.00 Z
           M 167.00,505.00
           C 167.00,505.00 155.00,501.00 155.00,501.00
             155.00,501.00 155.00,511.00 155.00,511.00
             155.00,511.00 167.00,507.00 167.00,507.00
             167.00,507.00 167.00,505.00 167.00,505.00 Z
           M 119.00,512.00
           C 119.00,512.00 101.00,511.00 101.00,511.00
             101.00,511.00 101.00,519.00 101.00,519.00
             101.00,519.00 119.00,518.00 119.00,518.00
             119.00,518.00 119.00,512.00 119.00,512.00 Z
           M 138.00,515.00
           C 138.00,515.00 127.00,513.00 127.00,513.00
             127.00,513.00 127.00,517.00 127.00,517.00
             127.00,517.00 138.00,515.00 138.00,515.00 Z
           M 651.00,575.00
           C 651.00,575.00 690.00,585.79 690.00,585.79
             690.00,585.79 716.00,590.00 716.00,590.00
             711.76,591.20 711.04,590.78 707.00,591.17
             702.89,591.57 701.56,592.14 697.00,591.96
             682.85,591.41 660.54,585.91 651.00,575.00 Z
           M 247.00,703.00
           C 271.49,701.01 308.21,689.95 332.00,682.34
             359.21,673.65 386.57,663.89 413.00,652.99
             413.00,652.99 508.00,611.99 508.00,611.99
             547.94,595.51 597.57,577.35 641.00,588.48
             660.03,593.35 662.44,597.17 678.00,606.55
             678.00,606.55 700.00,620.00 700.00,620.00
             675.61,616.78 651.36,611.79 628.00,604.00
             636.68,611.51 652.99,622.83 663.00,628.57
             668.99,632.01 680.82,636.83 685.00,641.00
             653.44,636.84 632.34,631.45 602.00,622.58
             602.00,622.58 575.00,614.00 575.00,614.00
             570.21,612.40 565.05,609.93 560.00,610.00
             560.00,610.00 578.00,621.57 578.00,621.57
             578.00,621.57 616.00,643.75 616.00,643.75
             616.00,643.75 641.00,655.19 641.00,655.19
             641.00,655.19 657.00,662.00 657.00,662.00
             650.83,660.89 651.18,661.03 645.00,661.00
             634.62,660.95 616.46,658.46 606.00,656.58
             574.05,650.81 542.81,641.08 512.00,631.00
             517.56,635.52 532.16,643.55 539.00,647.30
             557.90,657.68 570.58,663.57 591.00,670.66
             591.00,670.66 623.00,680.00 623.00,680.00
             580.82,680.00 549.64,673.75 509.00,664.12
             509.00,664.12 477.00,656.29 477.00,656.29
             470.13,654.34 457.68,650.29 451.00,650.00
             451.00,650.00 483.00,665.69 483.00,665.69
             483.00,665.69 527.00,681.98 527.00,681.98
             527.00,681.98 556.00,689.80 556.00,689.80
             556.00,689.80 575.00,694.00 575.00,694.00
             575.00,694.00 554.00,695.00 554.00,695.00
             530.32,695.04 506.55,692.45 483.00,690.17
             483.00,690.17 465.00,688.72 465.00,688.72
             465.00,688.72 414.00,682.72 414.00,682.72
             414.00,682.72 383.00,679.00 383.00,679.00
             411.68,688.56 440.26,697.46 470.00,703.20
             470.00,703.20 496.00,706.92 496.00,706.92
             499.77,707.22 511.16,707.87 514.00,709.00
             514.00,709.00 456.00,714.00 456.00,714.00
             456.00,714.00 443.00,715.00 443.00,715.00
             443.00,715.00 429.00,715.00 429.00,715.00
             429.00,715.00 413.00,716.00 413.00,716.00
             413.00,716.00 380.00,716.00 380.00,716.00
             380.00,716.00 363.00,714.96 363.00,714.96
             363.00,714.96 349.00,714.96 349.00,714.96
             349.00,714.96 339.00,714.00 339.00,714.00
             317.46,713.75 296.35,710.71 275.00,708.15
             268.59,707.39 251.73,706.08 247.00,703.00 Z
           M 511.00,630.00
           C 511.00,630.00 510.00,630.00 510.00,630.00
             510.00,630.00 511.00,631.00 511.00,631.00
             511.00,631.00 511.00,630.00 511.00,630.00 Z" />
</svg>
